<?xml version="1.0" encoding="utf-8" standalone="yes"?>
<!DOCTYPE svg PUBLIC "-//W3C//DTD SVG 1.1//EN" "http://www.w3.org/Graphics/SVG/1.1/DTD/svg11.dtd">
<svg style="fill:none;stroke:none;fill-rule:evenodd;clip-rule:evenodd;stroke-linecap:round;stroke-linejoin:round;stroke-miterlimit:1.5;" version="1.1" xmlns="http://www.w3.org/2000/svg" xmlns:xlink="http://www.w3.org/1999/xlink" width="1029" height="475" viewBox="0 0 1029 475"><style class="text-font-style fontImports" data-font-family="Shantell Sans">@import url(https://fonts.googleapis.com/css2?family=Shantell+Sans:wght@300..800&amp;amp;display=block);</style><g id="items" style="isolation: isolate"><g id="blend" style="mix-blend-mode: normal"><g id="g-root-cp_1_container_1uonvsfx8s92-fill" data-item-order="-414851" transform="translate(26.6328125, 123)"></g><g id="g-root-cp_1_container_1uonvsfx8s92-stroke" data-item-order="-414851" transform="translate(26.6328125, 123)"><g id="cp_1_container_1uonvsfx8s92-stroke" fill="none" stroke-linecap="round" stroke-linejoin="round" stroke-miterlimit="4" stroke="#484848" stroke-width="4" stroke-opacity="1"><g><path d="M 125.5 95.5L 76 141L 73.5 140.9057M 125.5 95.5L 122 66M 125.5 95.5L 108 96.5M 122 66L 88 80.5M 122 66L 108 96.5M 88 80.5L 95 52M 88 80.5L 71 140.8113M 88 80.5L 108 96.5M 95 52L 64 10M 95 52L 62 65M 64 10L 35.5 57M 64 10L 62 65M 35.5 57L 42 82.5M 35.5 57L 62 65M 42 82.5L 13.5 73.5M 42 82.5L 26 100.5M 42 82.5L 56 140.2453M 13.5 73.5L 10 100.5M 13.5 73.5L 26 100.5M 10 100.5L 49.5 140L 53 140.1321M 10 100.5L 26 100.5M 26 100.5L 53 140.1321M 53 140.1321L 56 140.2453M 64.5 140.566L 62 65M 64.5 140.566L 56 140.2453M 64.5 140.566L 71 140.8113M 71 140.8113L 73.5 140.9057M 108 96.5L 73.5 140.9057M 125.5 95.5C 108.4 110.1 91.5 124.8 76 141C 75.2 141.3 74.3 141.3 73.5 140.9M 125.5 95.5C 124.1 85.7 123.8 75.8 122 66M 125.5 95.5C 119.7 95.2 113.8 95.5 108 96.5M 122 66C 111.2 72 99.3 75.5 88 80.5M 122 66C 117.7 76.3 114 87.1 108 96.5M 88 80.5C 90 70.9 92.6 61.5 95 52M 88 80.5C 86.3 90.7 82.7 100.4 79.6 110.2C 76.4 120.3 75.2 131.1 71 140.8M 88 80.5C 94.2 86.4 101.4 91.1 108 96.5M 95 52C 86 37.1 74.3 24 64 10M 95 52C 84.1 56.6 73.1 61 62 65M 64 10C 54.7 25.8 45.7 41.8 35.5 57M 64 10C 64.2 28.3 61.8 46.7 62 65M 35.5 57C 38 65.4 38.1 74.6 42 82.5M 35.5 57C 43.9 60.8 53.1 62.6 62 65M 42 82.5C 32.9 78.4 22.8 77 13.5 73.5M 42 82.5C 36 87.8 31.3 94.5 26 100.5M 42 82.5C 46.6 101.8 52.5 120.7 56 140.2M 13.5 73.5C 14.3 82.5 10.5 91.4 10 100.5M 13.5 73.5C 18.5 82.1 21.4 91.7 26 100.5M 10 100.5C 22.3 114.4 36.6 126.5 49.5 140C 50.6 140.3 51.8 140.1 53 140.1M 10 100.5C 15.3 101.3 20.7 100.4 26 100.5M 26 100.5C 33.6 114.5 45.2 126.2 53 140.1M 53 140.1C 54 140.4 55 140.5 56 140.2M 64.5 140.6C 64.1 115.4 62.6 90.2 62 65M 64.5 140.6C 61.7 141 58.7 139.5 56 140.2M 64.5 140.6C 66.7 140.9 68.9 141.1 71 140.8M 71 140.8C 71.8 140.6 72.7 140.7 73.5 140.9M 108 96.5C 96 110.9 84.9 126 73.5 140.9M 125.5 95.5C 121 101.1 113.9 104.4 109.5 110.2C 105.1 116.1 99.6 121.6 93.2 125.2C 86.4 129.1 83.1 137.7 76 141C 75.2 140.7 74.3 140.8 73.5 140.9M 125.5 95.5C 124.9 85.6 123.2 75.8 122 66M 125.5 95.5C 119.8 94.3 113.8 96.4 108 96.5M 122 66C 111.5 72.5 99 74.9 88 80.5M 122 66C 118.1 76.5 109.9 85.5 108 96.5M 88 80.5C 91.8 71.5 91.4 61.1 95 52M 88 80.5C 88.2 86.2 84.8 91.4 83.4 97C 82 102.1 80.7 107.3 79 112.4C 77.6 116.6 77.3 121.2 75.4 125.2C 73.1 130.1 72.3 135.6 71 140.8M 88 80.5C 92.2 87.9 103.4 89.3 108 96.5M 95 52C 91.2 47.5 86.6 43.3 84.5 37.7C 82.6 32.8 79 28.5 75.1 25C 70.5 20.8 68.5 14.3 64 10M 95 52C 83.6 55 73.8 63.7 62 65M 64 10C 58 17.3 51.2 25.1 49.2 34.4C 47.4 43 39 48.9 35.5 57M 64 10C 63.1 15.9 64.9 22.1 63.4 27.8C 61.8 33.7 65 40.4 62.7 46C 60.3 51.9 64.5 59.2 62 65M 35.5 57C 35.2 61.5 39.5 65.7 38.9 70.2C 38.3 74.4 39.9 78.8 42 82.5M 35.5 57C 39.8 57.7 44.5 58.2 47.9 60.7C 51.8 63.7 57.2 64.2 62 65M 42 82.5C 37.4 80.9 32.8 79.4 28.2 78.1C 23.2 76.7 18.6 73.1 13.5 73.5M 42 82.5C 37.1 88.8 31.3 94.4 26 100.5M 42 82.5C 41.2 89.3 45.3 95.9 46.9 102.6C 48.2 108.3 51.8 113.9 51 119.7C 50.1 126.7 56.8 133.3 56 140.2M 13.5 73.5C 10.3 82 9.3 91.4 10 100.5M 13.5 73.5C 18.3 82.2 19.7 92.8 26 100.5M 10 100.5C 12.9 105.4 19.8 107.4 22.2 112.7C 24.8 118.5 32.2 121 35.9 126.4C 39.5 131.7 46.3 134.4 49.5 140C 50.7 140.1 51.8 140 53 140.1M 10 100.5C 15.3 100.1 20.9 99.1 26 100.5M 26 100.5C 29.1 107.9 37.9 112.5 39.5 120.3C 41.1 128.1 49.7 132.8 53 140.1M 53 140.1C 54 140.3 55.1 140.6 56 140.2M 64.5 140.6C 61 132 62 122 63.6 113C 65.1 104.4 61.2 95.5 62.7 86.9C 64 79.7 63.2 72.2 62 65M 64.5 140.6C 61.7 141.1 58.7 141.3 56 140.2M 64.5 140.6C 66.7 140.8 68.9 141.4 71 140.8M 71 140.8C 71.8 140.8 72.7 140.7 73.5 140.9M 108 96.5C 102.9 100.2 101.2 107.2 96.5 111.3C 92 115.3 90.5 122.3 85.5 125.5C 80 129 78 136.2 73.5 140.9"></path></g></g></g><g id="g-root-cp_2_container_1_1lt0vjjx8t1r-fill" data-item-order="-414843" transform="translate(192.6328125, 127)"></g><g id="g-root-cp_2_container_1_1lt0vjjx8t1r-stroke" data-item-order="-414843" transform="translate(192.6328125, 127)"><g id="cp_2_container_1_1lt0vjjx8t1r-stroke" fill="none" stroke-linecap="round" stroke-linejoin="round" stroke-miterlimit="4" stroke="#484848" stroke-width="4" stroke-opacity="1"><g><path d="M 10 73.5L 70 10M 10 73.5L 70 132M 10 73.5L 88.5 87M 70 10L 130.5 67M 70 10L 88.5 87M 130.5 67L 70 132M 130.5 67L 88.5 87M 70 132L 88.5 87M 10 73.5C 19.7 62.7 30 52.4 39.9 41.8C 49.9 31.2 59.8 20.4 70 10M 10 73.5C 30 92.9 50.4 112.1 70 132M 10 73.5C 36.3 76.9 62.1 84.1 88.5 87M 70 10C 89.9 29.2 109.9 48.5 130.5 67M 70 10C 77.2 35.4 83.9 61 88.5 87M 130.5 67C 119.8 77.8 108.9 88.5 99.4 100.4C 90.4 111.6 78.4 120.3 70 132M 130.5 67C 116.2 73 102.7 80.8 88.5 87M 70 132C 77.5 117.6 83.6 102.5 88.5 87M 10 73.5C 15.3 68.9 20.7 64.2 24.4 58.3C 28.1 52.3 33.1 47 38.9 43C 45.1 38.6 50.5 32.8 54.6 26.3C 58.5 20 65.4 15.9 70 10M 10 73.5C 14.7 79.6 21.5 83.7 26.4 89.5C 30.8 94.7 34.9 100.7 41 103.7C 46.6 106.5 50.7 111.7 54.4 116.7C 58.6 122.6 67.1 125.3 70 132M 10 73.5C 15.1 72.8 20.2 74.8 25.2 76.1C 30.1 77.4 35.4 76.9 40.2 78.7C 45.5 80.6 51.9 78.9 56.8 81.6C 61.4 84 67.1 83.4 72.2 84.2C 77.7 85 83 86.7 88.5 87M 70 10C 77.5 16.3 83.8 23.9 91.4 30.1C 97.7 35.3 102.1 43.1 109.3 47C 117.8 51.7 122.5 61.5 130.5 67M 70 10C 71.4 16.9 73.3 23.8 75 30.7C 76.6 37.5 78.7 44.3 79.9 51.3C 81 57.6 81.9 64.1 84.4 70C 86.7 75.4 88.6 81.2 88.5 87M 130.5 67C 127.3 72.1 122.6 76.2 118.2 80.3C 113.5 84.5 108.6 88.6 105.4 93.9C 102.7 98.5 96.8 100.8 94.6 105.6C 92 111.2 85.6 114.1 82 119.1C 78.6 123.9 74.7 128.5 70 132M 130.5 67C 123.2 70.8 115.1 73.2 108.2 77.6C 102 81.5 95.2 84.1 88.5 87M 70 132C 72.9 125.2 73.2 116.8 78.4 111.5C 84.6 105.2 84.9 95.1 88.5 87"></path></g></g></g><g id="g-root-cp_3_container_2_1q8udnzx8t1c-fill" data-item-order="-414835" transform="translate(373.6328125, 126)"></g><g id="g-root-cp_3_container_2_1q8udnzx8t1c-stroke" data-item-order="-414835" transform="translate(373.6328125, 126)"><g id="cp_3_container_2_1q8udnzx8t1c-stroke" fill="none" stroke-linecap="round" stroke-linejoin="round" stroke-miterlimit="4" stroke="#484848" stroke-width="4" stroke-opacity="1"><g><path d="M 10 85.5L 57.5 134.5M 10 85.5L 18.5 74.5M 10 85.5L 71 95.5M 57.5 134.5L 104.5 80.5M 57.5 134.5L 71 95.5M 104.5 80.5L 96 70.5M 104.5 80.5L 71 95.5M 96 70.5L 45.5 64L 18.5 74.5M 96 70.5L 67 81.5M 18.5 74.5L 67 81.5M 71 95.5L 67 81.5M 71 60L 21 53L 60 10M 71 60L 102 49L 60 10M 71 60L 60 10M 10 85.5C 26.7 101 40.8 119.1 57.5 134.5M 10 85.5C 12.5 81.6 15.4 77.9 18.5 74.5M 10 85.5C 30.1 89.8 50.7 91.8 71 95.5M 57.5 134.5C 65.6 126.8 72.1 117.5 79.6 109.2C 88 99.7 95.2 89.1 104.5 80.5M 57.5 134.5C 62.8 121.8 66.6 108.5 71 95.5M 104.5 80.5C 102.3 76.7 98.7 73.9 96 70.5M 104.5 80.5C 93.1 84.9 82.5 91.4 71 95.5M 96 70.5C 79.2 67.8 62.4 66 45.5 64C 36.9 68.4 27.5 70.9 18.5 74.5M 96 70.5C 85.8 72.3 76.5 77.4 67 81.5M 18.5 74.5C 34.6 77.4 50.9 78.9 67 81.5M 71 95.5C 70 90.7 69.6 85.6 67 81.5M 71 60C 54.3 58.2 37.3 57.2 21 53C 33.8 38.5 47.2 24.5 60 10M 71 60C 81.2 56 91.3 51.6 102 49C 87.8 36.2 74.6 22.3 60 10M 71 60C 66.9 43.4 64.2 26.5 60 10M 10 85.5C 13.7 91.8 18.8 97.7 25.2 101.2C 32.1 105 34.8 114.4 41.7 118.2C 48.3 121.9 52.1 129.2 57.5 134.5M 10 85.5C 13 82 16.6 78.7 18.5 74.5M 10 85.5C 19.3 83.5 29 87.4 38.1 90.1C 48.7 93.2 60 94.1 71 95.5M 57.5 134.5C 59.2 130.4 63.9 128.3 66.2 124.6C 68.7 120.3 72.1 116.4 76 113.3C 79.4 110.5 82.3 107 84.7 103.3C 87.2 99.4 90.7 96.2 93.8 92.8C 97.5 88.8 101.7 85.1 104.5 80.5M 57.5 134.5C 59.2 128.1 62.2 122.1 64 115.8C 65.9 108.9 66.7 101.2 71 95.5M 104.5 80.5C 102.8 76.5 98.8 73.8 96 70.5M 104.5 80.5C 92.6 83.4 81.9 89.9 71 95.5M 96 70.5C 91.4 68.2 85.4 70.3 80.6 68.5C 75.5 66.6 69.5 68.3 64.5 66.4C 58.5 64.3 51.7 62.5 45.5 64C 36 65.7 27.3 70.6 18.5 74.5M 96 70.5C 91.6 73.8 85.5 73.9 80.6 76.3C 76.2 78.5 71.5 79.6 67 81.5M 18.5 74.5C 23.9 74.3 29.1 76.8 34.5 76.8C 40 76.8 45.3 79.3 50.8 79.2C 56.3 79 61.6 81.3 67 81.5M 71 95.5C 69.8 90.8 69.2 85.8 67 81.5M 71 60C 65.8 60.2 60.5 59.6 55.7 57.9C 49.7 55.8 42.4 58.3 36.9 55.2C 32.3 52.6 26.3 52.4 21 53C 26.3 49.5 29.3 43.5 33.7 39C 38 34.6 42.8 30.6 46 25.5C 49.6 19.6 56.8 16.2 60 10M 71 60C 76.8 58.8 81.8 54.6 87.7 54.1C 92.7 53.6 98.1 52.2 102 49C 96.5 45.1 90.7 41 87.2 35.3C 83.7 29.5 78.5 24.3 72.3 21.4C 67.2 19.1 64.5 13.3 60 10M 71 60C 70.5 56 68 52.3 68.4 48.4C 69 43.8 67.1 39.2 65.5 34.9C 63.9 30.7 64.1 26 62.6 21.8C 61.2 18 60.6 14 60 10"></path></g></g></g><g id="g-root-cp_4_container_3_1q8udnzx8t1d-fill" data-item-order="-414827" transform="translate(540.6328125, 146)"></g><g id="g-root-cp_4_container_3_1q8udnzx8t1d-stroke" data-item-order="-414827" transform="translate(540.6328125, 146)"><g id="cp_4_container_3_1q8udnzx8t1d-stroke" fill="none" stroke-linecap="round" stroke-linejoin="round" stroke-miterlimit="4" stroke="#484848" stroke-width="4" stroke-opacity="1"><g><path d="M 10.6402 36.3415L 57.5878 94.2927L 105.1966 36.3415M 10.6402 36.3415C 9.3177 33.4878 9.3177 29.0976 17.9137 19.2195M 10.6402 36.3415C 38.412 50.8293 91.9719 46.2195 105.1966 36.3415M 105.1966 36.3415C 106.9599 34.8049 106.519 29.0976 96.6006 19.2195M 96.6006 19.2195C 95.2781 22.5122 85.6241 29.0976 57.5878 29.0976C 29.5515 29.0976 19.4566 22.5122 17.9137 19.2195M 96.6006 19.2195C 93.2944 15.9268 84.5661 10 57.5878 10C 30.6094 10 20.7791 15.9268 17.9137 19.2195M 10.6 36.3C 27.1 54.9 43 74.1 57.6 94.3C 73 74.6 88.8 55.2 105.2 36.3M 10.6 36.3C 9.4 33.5 9.2 29 17.9 19.2M 10.6 36.3C 24.1 43.3 43.6 45.5 61.6 45.5C 80.8 45.5 99.3 42.5 105.2 36.3M 105.2 36.3C 107.1 35 107.4 28.1 96.6 19.2M 96.6 19.2C 95.1 22.4 85.6 28.9 57.6 29.1C 29.6 29.3 19.8 22.4 17.9 19.2M 96.6 19.2C 94.1 15.3 84.6 9.1 57.6 10C 30.6 10.9 21.8 17.1 17.9 19.2M 10.6 36.3C 14.7 41.1 18.8 45.8 22.4 50.9C 25.7 55.5 29.5 59.7 33.1 64C 37 68.8 41.2 73.3 44.7 78.3C 48.5 84 52.8 89.4 57.6 94.3C 60.8 90.5 63.2 85.9 67.1 82.7C 70.8 79.7 72.9 75.2 76.1 71.8C 79.8 67.8 81.9 62.4 86.3 59.3C 90.2 56.6 92.6 52.2 95.3 48.4C 98.3 44.1 103.4 41.2 105.2 36.3M 10.6 36.3C 8.7 33.9 7.7 27.4 17.9 19.2M 10.6 36.3C 17.8 39.7 26.5 41.3 35.5 43.9C 43.5 46.1 52.5 45.4 60.9 45.5C 71.5 45.7 81.6 43.4 89.9 42.3C 96.8 41.3 102.8 39.5 105.2 36.3M 105.2 36.3C 106.8 34.7 107.1 28.4 96.6 19.2M 96.6 19.2C 95.6 20.8 92.4 22.2 86.4 25.6C 80.8 28.8 71 27.9 57.6 29.1C 44.5 30.2 35.4 27 29 25.8C 21.8 24.3 18.1 21.1 17.9 19.2M 96.6 19.2C 95.7 17.8 93.8 15.3 90.4 15.1C 87.6 14.8 84.4 12.6 79.8 11.8C 74.3 10.9 67 8.7 57.6 10C 43.8 11.9 34.6 13.4 28.1 13.6C 22 13.7 19.6 17.9 17.9 19.2"></path></g></g></g><g id="g-root-cp_5_container_4_1q8udnzx8t1e-fill" data-item-order="-414819" transform="translate(708.6328125, 145)"></g><g id="g-root-cp_5_container_4_1q8udnzx8t1e-stroke" data-item-order="-414819" transform="translate(708.6328125, 145)"><g id="cp_5_container_4_1q8udnzx8t1e-stroke" fill="none" stroke-linecap="round" stroke-linejoin="round" stroke-miterlimit="4" stroke="#484848" stroke-width="4" stroke-opacity="1"><g><path d="M 10.6402 36.7073L 57.5878 95.4634M 10.6402 36.7073C 12.3209 37.5963 16.0588 39.2955 17.9137 40.0457M 10.6402 36.7073C 10.1555 35.6469 9.8485 34.3773 10.0771 32.7012M 57.5878 95.4634L 105.1966 36.7073M 57.5878 95.4634L 41.7392 57.4055M 57.5878 95.4634L 73.4784 57.4055M 105.1966 36.7073C 104.0589 37.5689 99.6367 39.2721 97.9441 40.0457M 105.1966 36.7073C 105.9145 36.073 106.2671 34.7376 105.7632 32.7012M 96.6006 19.3476C 93.2944 16.0091 84.5661 10 57.5878 10C 30.6094 10 20.7791 16.0091 17.9137 19.3476M 96.6006 19.3476C 96.2421 20.2526 95.2713 21.4029 93.488 22.599M 96.6006 19.3476C 102.4806 25.285 105.0297 29.7362 105.7632 32.7012M 17.9137 19.3476C 18.332 20.2526 19.3787 21.4029 21.241 22.599M 17.9137 19.3476C 12.4681 25.6923 10.4723 29.804 10.0771 32.7012M 41.7392 57.4055L 25.8696 42.0488M 41.7392 57.4055L 55.6251 45.8252M 25.8696 42.0488C 31.4208 43.0824 49.7956 45.5108 55.6251 45.8252M 25.8696 42.0488C 33.1432 40.7134 42.0217 31.0989 41.7392 28.5178M 25.8696 42.0488C 23.2247 41.5563 19.9185 40.8565 17.9137 40.0457M 55.6251 45.8252C 56.9476 45.8965 58.9313 46.0549 60.2537 45.8252M 55.6251 45.8252C 49.674 44.0372 42.4004 33.0975 41.7392 28.5178M 73.4784 57.4055L 87.3643 43.3841M 73.4784 57.4055L 60.2537 45.8252M 87.3643 43.3841C 81.7006 44.3434 66.8087 45.5577 60.2537 45.8252M 87.3643 43.3841C 81.0165 40.7017 74.1397 32.5654 73.4784 28.5061M 87.3643 43.3841C 89.7407 42.9817 95.2991 41.3811 97.9441 40.0457M 60.2537 45.8252C 64.2212 44.7195 72.4204 35.8329 73.4784 28.5061M 73.4784 28.5061C 68.994 29.0421 63.7324 29.3628 57.5878 29.3628C 51.4878 29.3628 46.2372 29.0467 41.7392 28.5178M 73.4784 28.5061C 83.9087 27.2595 90.1348 24.8483 93.488 22.599M 41.7392 28.5178C 31.1679 27.2745 24.7536 24.8553 21.241 22.599M 17.9137 40.0457C 16.8117 37.6948 14.3641 30.2093 21.241 22.599M 21.241 22.599C 18.2066 26.189 11.7257 33.2354 10.0771 32.7012M 93.488 22.599C 96.964 25.1564 100.3329 32.9311 97.9441 40.0457M 93.488 22.599C 95.9983 25.0762 101.9678 30.5646 105.7632 32.7012M 10.6 36.7C 26.7 56 43.3 74.9 57.6 95.5M 10.6 36.7C 12.4 37.4 15.9 39.9 17.9 40M 10.6 36.7C 10.5 35.5 10 34.4 10.1 32.7M 57.6 95.5C 72.6 75.2 90.3 57.1 105.2 36.7M 57.6 95.5C 52.8 82.6 46.4 70.3 41.7 57.4M 57.6 95.5C 63.6 83.1 69.6 70.6 73.5 57.4M 105.2 36.7C 104.1 37.7 99.4 38.8 97.9 40M 105.2 36.7C 106.1 36.4 106.3 34.7 105.8 32.7M 96.6 19.3C 93.9 15.5 84.5 11.3 57.6 10C 30.6 8.7 21.1 16.3 17.9 19.3M 96.6 19.3C 96 20.1 95.2 21.4 93.5 22.6M 96.6 19.3C 103.3 24.4 105 29.8 105.8 32.7M 17.9 19.3C 18.4 20.2 19.4 21.3 21.2 22.6M 17.9 19.3C 13.1 26.2 10.3 29.8 10.1 32.7M 41.7 57.4C 36.2 52.5 31.2 47.1 25.9 42M 41.7 57.4C 45.6 52.8 51.2 49.9 55.6 45.8M 25.9 42C 31.2 43.8 49.8 45.8 55.6 45.8M 25.9 42C 33.2 41.3 43 30.8 41.7 28.5M 25.9 42C 23.4 41.1 19.8 41.1 17.9 40M 55.6 45.8C 56.9 46.1 59.1 46.5 60.3 45.8M 55.6 45.8C 50.1 43 42 33.1 41.7 28.5M 73.5 57.4C 78.2 52.9 82.7 48 87.4 43.4M 73.5 57.4C 69.2 53.4 63.9 50.4 60.3 45.8M 87.4 43.4C 81.9 45.2 66.8 45.4 60.3 45.8M 87.4 43.4C 80.7 41.6 73.3 32.6 73.5 28.5M 87.4 43.4C 89.7 43 95.2 41.3 97.9 40M 60.3 45.8C 64.1 44.5 71.4 35.6 73.5 28.5M 73.5 28.5C 69.3 30.1 63.6 28 57.6 29.4C 51.6 30.7 46.3 28.4 41.7 28.5M 73.5 28.5C 83.9 27.4 89.7 23.9 93.5 22.6M 41.7 28.5C 31.2 27.4 24.6 25.1 21.2 22.6M 17.9 40C 16.7 37.8 14.2 30 21.2 22.6M 21.2 22.6C 17.7 25.7 11.4 33.8 10.1 32.7M 93.5 22.6C 96.8 25.4 99.2 32.6 97.9 40M 93.5 22.6C 95.6 25.4 102.1 30.4 105.8 32.7M 10.6 36.7C 18.8 45.7 22.8 59.2 33.3 65.1C 44.6 71.4 53.5 83.2 57.6 95.5M 10.6 36.7C 12.3 37.6 16.1 39.1 17.9 40M 10.6 36.7C 10.2 35.6 9.9 34.4 10.1 32.7M 57.6 95.5C 64.7 89.9 70.8 82.7 74.6 74.5C 77.8 67.5 83.2 61.5 89.1 56.6C 95.6 51.1 98.8 42.4 105.2 36.7M 57.6 95.5C 55.4 89.7 51.8 84.3 50.4 78.2C 48.7 70.9 45.3 64 41.7 57.4M 57.6 95.5C 58.8 89.3 61.6 83.5 64.8 78.1C 68.7 71.7 68.3 62.8 73.5 57.4M 105.2 36.7C 103.9 37.4 99.8 39.8 97.9 40M 105.2 36.7C 106.1 36.4 106 34.8 105.8 32.7M 96.6 19.3C 94.4 15.2 84.6 10.4 57.6 10C 44.3 9.8 35.3 11.9 29 13.3C 22.5 14.8 18.7 17.3 17.9 19.3M 96.6 19.3C 96.4 20.3 95 21.1 93.5 22.6M 96.6 19.3C 104.3 22.7 104 30.2 105.8 32.7M 17.9 19.3C 18.1 20.3 19.3 21.5 21.2 22.6M 17.9 19.3C 13.5 26.4 9.6 29.8 10.1 32.7M 41.7 57.4C 37.8 51.2 29.1 48.7 25.9 42M 41.7 57.4C 45.3 52.6 52.7 51.1 55.6 45.8M 25.9 42C 31.5 41.4 49.8 45.8 55.6 45.8M 25.9 42C 32.4 38.5 41.4 31.1 41.7 28.5M 25.9 42C 23.2 42.4 19.7 41.2 17.9 40M 55.6 45.8C 56.9 46 59.1 46.5 60.3 45.8M 55.6 45.8C 50.6 42.2 43 33 41.7 28.5M 73.5 57.4C 79.3 54.3 82.1 47.3 87.4 43.4M 73.5 57.4C 68.2 54.9 63 51 60.3 45.8M 87.4 43.4C 82.3 46.2 66.8 46.7 60.3 45.8M 87.4 43.4C 82 39.1 75.6 32 73.5 28.5M 87.4 43.4C 89.8 43.4 95 40.4 97.9 40M 60.3 45.8C 64.4 45.7 72.5 35.9 73.5 28.5M 73.5 28.5C 69 28.9 63.7 28.5 57.6 29.4C 51.6 30.3 46.3 28.5 41.7 28.5M 73.5 28.5C 83.6 25.8 90.6 25.5 93.5 22.6M 41.7 28.5C 31.1 27.9 24.7 24.9 21.2 22.6M 17.9 40C 16.5 37.9 12.9 28.5 21.2 22.6M 21.2 22.6C 18.1 26.1 11.7 33.3 10.1 32.7M 93.5 22.6C 97.3 24.7 97.6 32.5 97.9 40M 93.5 22.6C 96.2 24.8 101.5 31.9 105.8 32.7"></path></g></g></g><g id="g-root-cp_6_container_5_1hd7df3x8tu3-fill" data-item-order="-414811" transform="translate(874.0558471679688, 145)"></g><g id="g-root-cp_6_container_5_1hd7df3x8tu3-stroke" data-item-order="-414811" transform="translate(874.0558471679688, 145)"><g id="cp_6_container_5_1hd7df3x8tu3-stroke" fill="none" stroke-linecap="round" stroke-linejoin="round" stroke-miterlimit="4" stroke="#484848" stroke-width="4" stroke-opacity="1"><g><path d="M 40.5771 24.7517L 46.5771 36L 25.0771 47.0578L 25.0771 28.5L 40.5771 24.7517ZM 10.6402 39.5061L 60.1649 95.4634M 10.6402 39.5061C 10.1555 38.4457 9.8485 37.1761 10.0771 35.5C 10.1235 35.1599 10.4071 34.6446 10.8716 34M 10.6402 39.5061C 11.2803 40.0753 12.125 40.7192 13.173 41.4085M 60.1649 95.4634L 109.0104 39.5061M 60.1649 95.4634L 53.6765 81M 60.1649 95.4634L 66.626 81M 109.0104 39.5061C 109.7284 38.8718 110.0809 37.5364 109.5771 35.5C 109.5082 35.2215 109.3111 34.8321 109.0104 34.3551M 109.0104 39.5061C 108.4001 40.0753 107.589 40.7192 106.5771 41.4085M 31.5771 14.9837C 36.0023 12.9158 44.9412 10 60.1649 10C 75.3886 10 84.8792 12.9158 89.6956 14.9837M 31.5771 14.9837C 29.1458 16.1198 28.0771 17 28.0771 17C 28.0771 17 14.3634 29.1542 10.8716 34M 31.5771 14.9837C 31.674 15.5861 31.8784 16.2689 32.2101 17M 60.1649 28.5L 46.5771 36M 60.1649 28.5L 74.5771 36M 60.1649 28.5C 69.0544 28.5 75.507 26.9051 80.0771 24.7218M 60.1649 28.5C 41.86 28.5 34.3598 21.7374 32.2101 17M 89.6956 14.9837C 92.3418 16.1198 93.5771 17 93.5771 17C 93.5771 17 106.1103 29.7537 109.0104 34.3551M 89.6956 14.9837C 89.4949 15.8536 89.0585 16.8915 88.3329 18M 60.1649 52.5L 46.5771 36M 60.1649 52.5L 74.5771 36M 60.1649 52.5C 67.6364 52.5 74.2736 51.8801 80.0771 50.889M 60.1649 52.5C 52.6934 52.5 46.0238 51.8801 40.1685 50.889M 60.1649 52.5L 53.6765 81M 60.1649 52.5L 66.626 81M 46.5771 36L 40.1685 50.889M 74.5771 36L 80.0771 24.7218M 74.5771 36L 96.0771 46.6499M 74.5771 36L 80.0771 50.889M 80.0771 24.7218L 96.0771 28.5M 80.0771 24.7218C 84.2724 22.7175 86.8813 20.2174 88.3329 18M 96.0771 28.5L 96.0771 46.6499M 96.0771 28.5L 88.3329 18M 96.0771 28.5L 106.5771 41.4085M 96.0771 28.5L 109.0104 34.3551M 96.0771 46.6499C 100.6929 44.9084 104.1926 43.0327 106.5771 41.4085M 96.0771 46.6499C 91.7327 48.2891 86.3997 49.8093 80.0771 50.889M 96.0771 46.6499L 66.626 81M 25.0771 28.5L 32.2101 17M 25.0771 28.5L 13.173 41.4085M 25.0771 28.5L 10.8716 34M 25.0771 47.0578L 53.6765 81M 13.173 41.4085C 17.9665 44.5613 27.0119 48.6621 40.1685 50.889M 80.0771 50.889L 66.626 81M 40.1685 50.889L 53.6765 81M 40.6 24.8C 41.8 28.8 43.5 33 46.6 36C 40.1 40.8 32.6 44.2 25.1 47.1C 26.8 41.1 27 34.4 25.1 28.5C 30 26.4 35.3 25.5 40.6 24.8M 10.6 39.5C 28.5 56.9 43.4 77 60.2 95.5M 10.6 39.5C 10.3 38.4 9.4 37 10.1 35.5C 10.2 35.2 10.6 34.8 10.9 34M 10.6 39.5C 11.3 40 12 40.9 13.2 41.4M 60.2 95.5C 68.8 85.3 77 74.6 86.5 65.3C 94.7 57.3 101.9 48.4 109 39.5M 60.2 95.5C 58.3 90.5 55.5 86 53.7 81M 60.2 95.5C 62.2 90.6 64.1 85.7 66.6 81M 109 39.5C 109.5 38.7 109.6 37.6 109.6 35.5C 109.6 35.2 109.3 34.9 109 34.4M 109 39.5C 108.4 40 107.7 40.9 106.6 41.4M 31.6 15C 35.8 12.6 45.1 11.9 60.2 10C 75.3 8.1 85 12.6 89.7 15M 31.6 15C 28.9 15.5 28.1 17 28.1 17C 28.1 17 13.6 28.7 10.9 34M 31.6 15C 31.5 15.6 32.2 16.2 32.2 17M 60.2 28.5C 55.3 30.2 50.6 32.8 46.6 36M 60.2 28.5C 65.5 29.5 69.4 34.5 74.6 36M 60.2 28.5C 69 28.5 76.1 27.9 80.1 24.7M 60.2 28.5C 41.9 27.1 34.9 21.4 32.2 17M 89.7 15C 92.4 15.8 93.6 17 93.6 17C 93.6 17 107.4 29.1 109 34.4M 89.7 15C 89.4 15.8 89.3 17.1 88.3 18M 60.2 52.5C 55.6 47 52 40.6 46.6 36M 60.2 52.5C 65.8 47.9 68.9 40.6 74.6 36M 60.2 52.5C 67.4 54.4 74.7 53.2 80.1 50.9M 60.2 52.5C 52.9 50.6 45.9 52.6 40.2 50.9M 60.2 52.5C 59.6 62.2 57.1 71.9 53.7 81M 60.2 52.5C 62.3 62 65.6 71.3 66.6 81M 46.6 36C 44.4 40.9 43.1 46.4 40.2 50.9M 74.6 36C 76.7 32.4 78.3 28.5 80.1 24.7M 74.6 36C 82 39.1 89.2 42.6 96.1 46.6M 74.6 36C 76.6 40.9 78.4 45.9 80.1 50.9M 80.1 24.7C 85.2 26.7 90.8 27.2 96.1 28.5M 80.1 24.7C 84.4 23.1 87.6 20.5 88.3 18M 96.1 28.5C 97.3 34.4 94.9 40.7 96.1 46.6M 96.1 28.5C 93 25.4 91.7 20.7 88.3 18M 96.1 28.5C 99.5 32.9 103 37.2 106.6 41.4M 96.1 28.5C 100.7 29.5 104.6 32.7 109 34.4M 96.1 46.6C 100.6 44.7 104.1 42.8 106.6 41.4M 96.1 46.6C 92.2 49.2 86.4 49.7 80.1 50.9M 96.1 46.6C 85.7 57.6 75.6 68.9 66.6 81M 25.1 28.5C 27.4 24.7 28.7 19.8 32.2 17M 25.1 28.5C 21.3 33 17.7 37.7 13.2 41.4M 25.1 28.5C 20.3 30.3 15.4 31.6 10.9 34M 25.1 47.1C 35.2 57.9 45.5 68.7 53.7 81M 13.2 41.4C 17.3 45.5 26.9 50.1 40.2 50.9M 80.1 50.9C 76.1 61.1 71.4 71.1 66.6 81M 40.2 50.9C 44.2 61.1 49.4 70.9 53.7 81M 40.6 24.8C 43.6 27.8 43.8 32.8 46.6 36C 39.1 39.1 31.5 42.1 25.1 47.1C 25.1 40.9 23.1 34.4 25.1 28.5C 30.4 28.6 35.3 25 40.6 24.8M 10.6 39.5C 16.9 44.1 20 52.2 26.2 57C 33 62.4 40.4 68.4 43.4 76.6C 46.4 84.4 57.2 87.6 60.2 95.5M 10.6 39.5C 10.4 38.4 10.4 37.2 10.1 35.5C 10 35.2 10.2 34.5 10.9 34M 10.6 39.5C 11.3 40.1 12 41.1 13.2 41.4M 60.2 95.5C 64.2 90.8 70.3 87.3 72.4 81.5C 74.5 75.3 80.1 70.8 85.2 66.7C 90.1 62.9 94.8 58.3 97.5 52.7C 100 47.4 104.9 43.6 109 39.5M 60.2 95.5C 59.3 90.2 57 85.1 53.7 81M 60.2 95.5C 63.7 91.6 66 86.2 66.6 81M 109 39.5C 109.8 39 110.7 37.3 109.6 35.5C 109.4 35.3 109.2 34.9 109 34.4M 109 39.5C 108.5 40.2 107.6 40.7 106.6 41.4M 31.6 15C 36 12.8 45.2 12.6 60.2 10C 75.2 7.4 84.6 13.7 89.7 15M 31.6 15C 29 15.5 28.1 17 28.1 17C 28.1 17 13.9 28.9 10.9 34M 31.6 15C 31.8 15.6 32 16.2 32.2 17M 60.2 28.5C 55.1 29.5 51.1 33.5 46.6 36M 60.2 28.5C 65.1 30.8 70.4 32.6 74.6 36M 60.2 28.5C 68.6 25.7 75.6 27.1 80.1 24.7M 60.2 28.5C 41.9 29.1 32.5 22.2 32.2 17M 89.7 15C 92.2 16.5 93.6 17 93.6 17C 93.6 17 105.7 30.1 109 34.4M 89.7 15C 89.3 15.8 89.2 17 88.3 18M 60.2 52.5C 57.7 49.8 54.5 47.4 53.1 44C 51.8 40.8 49.5 37.8 46.6 36M 60.2 52.5C 65.6 47.6 71.6 42.7 74.6 36M 60.2 52.5C 67.6 51.7 74.6 52.9 80.1 50.9M 60.2 52.5C 52.7 53.4 45.6 53.4 40.2 50.9M 60.2 52.5C 56 61.3 54.3 71.3 53.7 81M 60.2 52.5C 65 61 62.9 72 66.6 81M 46.6 36C 44.2 40.8 43.6 46.7 40.2 50.9M 74.6 36C 75.4 31.9 77.1 27.7 80.1 24.7M 74.6 36C 82.3 37.9 90.1 41.4 96.1 46.6M 74.6 36C 75.4 41.2 78.9 45.7 80.1 50.9M 80.1 24.7C 85.5 24.1 90.6 29 96.1 28.5M 80.1 24.7C 84.4 23 87 20.3 88.3 18M 96.1 28.5C 96.5 34.5 98.1 40.9 96.1 46.6M 96.1 28.5C 93.1 25.4 89.5 22.2 88.3 18M 96.1 28.5C 99 33.2 101.9 38.5 106.6 41.4M 96.1 28.5C 99.6 31.6 105 31.8 109 34.4M 96.1 46.6C 100.6 44.7 104.8 43.7 106.6 41.4M 96.1 46.6C 92.7 49.8 86.4 49.8 80.1 50.9M 96.1 46.6C 92.8 54 83.7 57.7 80.4 65C 77.4 71.4 72 76.4 66.6 81M 25.1 28.5C 26.7 24.3 30 20.9 32.2 17M 25.1 28.5C 19.8 31.1 15.8 36.2 13.2 41.4M 25.1 28.5C 20.9 31.4 14.8 30.8 10.9 34M 25.1 47.1C 27.5 54.7 37.7 58 40.6 65.5C 43.1 71.8 49.8 75.5 53.7 81M 13.2 41.4C 15.3 43.5 20.4 43.3 24.2 46.7C 27.7 49.9 34 49.4 40.2 50.9M 80.1 50.9C 79.8 56 76.2 60.3 73.9 64.8C 71.2 70.1 70.8 76.8 66.6 81M 40.2 50.9C 40.8 56.3 46.6 60.3 46.8 65.7C 47.1 71.3 50.8 76.2 53.7 81"></path></g></g></g><g id="g-root-tx_adapting_1hd7df3x8tu4-fill" data-item-order="0" transform="translate(240.5625, 38)"><g id="tx_adapting_1hd7df3x8tu4-fill-merged" stroke="none" fill="#484848" fill-opacity="1"><g><text style="font: bold 25px &quot;Shantell Sans&quot;, cursive; white-space: pre;" transform="translate(274.0703125, 25)" font-weight="bold" font-size="25px" font-family="'Shantell Sans', cursive"><tspan x="-262.07" y="16.5" dominant-baseline="ideographic">Adapting to AI in Software Engineering</tspan></text></g></g></g><g id="g-root-tx_adapting_1hd7df3x8tu4-stroke" data-item-order="0" transform="translate(240.5625, 38)"></g><g id="g-root-tx_codecent_1cxdvanx8umd-fill" data-item-order="0" transform="translate(14, 308)"><g id="tx_codecent_1cxdvanx8umd-fill-merged" stroke="none" fill="#484848" fill-opacity="1"><g><text style="font: bold 20px &quot;Shantell Sans&quot;, cursive; white-space: pre;" transform="translate(80.6328125, 34)" font-weight="bold" font-size="20px" font-family="'Shantell Sans', cursive"><tspan x="-68.63" y="1.5" dominant-baseline="ideographic">Code-Centric </tspan><tspan x="-51.95" y="25.5" dominant-baseline="ideographic">Approach</tspan></text></g></g></g><g id="g-root-tx_codecent_1cxdvanx8umd-stroke" data-item-order="0" transform="translate(14, 308)"></g><g id="g-root-tx_problemu_142dc4vx8s9b-fill" data-item-order="0" transform="translate(180.6328125, 308)"><g id="tx_problemu_142dc4vx8s9b-fill-merged" stroke="none" fill="#484848" fill-opacity="1"><g><text style="font: bold 20px &quot;Shantell Sans&quot;, cursive; white-space: pre;" transform="translate(89.51953125, 34)" font-weight="bold" font-size="20px" font-family="'Shantell Sans', cursive"><tspan x="-42.5" y="1.5" dominant-baseline="ideographic">Problem </tspan><tspan x="-77.52" y="25.5" dominant-baseline="ideographic">Understanding</tspan></text></g></g></g><g id="g-root-tx_problemu_142dc4vx8s9b-stroke" data-item-order="0" transform="translate(180.6328125, 308)"></g><g id="g-root-tx_aiaspart_zmju0fx8t1l-fill" data-item-order="0" transform="translate(378.1484375, 299)"><g id="tx_aiaspart_zmju0fx8t1l-fill-merged" stroke="none" fill="#484848" fill-opacity="1"><g><text style="font: bold 20px &quot;Shantell Sans&quot;, cursive; white-space: pre;" transform="translate(52.484375, 34)" font-weight="bold" font-size="20px" font-family="'Shantell Sans', cursive"><tspan x="-28.67" y="1.5" dominant-baseline="ideographic">AI as </tspan><tspan x="-40.48" y="25.5" dominant-baseline="ideographic">Partner</tspan></text></g></g></g><g id="g-root-tx_aiaspart_zmju0fx8t1l-stroke" data-item-order="0" transform="translate(378.1484375, 299)"></g><g id="g-root-tx_deepdive_zmju0fx8t1n-fill" data-item-order="0" transform="translate(532.97265625, 308)"><g id="tx_deepdive_zmju0fx8t1n-fill-merged" stroke="none" fill="#484848" fill-opacity="1"><g><text style="font: bold 20px &quot;Shantell Sans&quot;, cursive; white-space: pre;" transform="translate(65.66015625, 34)" font-weight="bold" font-size="20px" font-family="'Shantell Sans', cursive"><tspan x="-53.66" y="1.5" dominant-baseline="ideographic">Deep Dive </tspan><tspan x="-30.69" y="25.5" dominant-baseline="ideographic">Skills</tspan></text></g></g></g><g id="g-root-tx_deepdive_zmju0fx8t1n-stroke" data-item-order="0" transform="translate(532.97265625, 308)"></g><g id="g-root-tx_communic_v6qbvzx8ttx-fill" data-item-order="0" transform="translate(684.6328125, 308)"><g id="tx_communic_v6qbvzx8ttx-fill-merged" stroke="none" fill="#484848" fill-opacity="1"><g><text style="font: bold 20px &quot;Shantell Sans&quot;, cursive; white-space: pre;" transform="translate(93.1328125, 34)" font-weight="bold" font-size="20px" font-family="'Shantell Sans', cursive"><tspan x="-81.13" y="1.5" dominant-baseline="ideographic">Communication </tspan><tspan x="-29.12" y="25.5" dominant-baseline="ideographic">Skills</tspan></text></g></g></g><g id="g-root-tx_communic_v6qbvzx8ttx-stroke" data-item-order="0" transform="translate(684.6328125, 308)"></g><g id="g-root-tx_aiaugmen_mb3bn3x8umn-fill" data-item-order="0" transform="translate(859.51171875, 296)"><g id="tx_aiaugmen_mb3bn3x8umn-fill-merged" stroke="none" fill="#484848" fill-opacity="1"><g><text style="font: bold 20px &quot;Shantell Sans&quot;, cursive; white-space: pre;" transform="translate(75.12109375, 46)" font-weight="bold" font-size="20px" font-family="'Shantell Sans', cursive"><tspan x="-20.89" y="-10.5" dominant-baseline="ideographic">AI-</tspan><tspan x="-63.12" y="13.5" dominant-baseline="ideographic">Augmented </tspan><tspan x="-49.79" y="37.5" dominant-baseline="ideographic">Engineer</tspan></text></g></g></g><g id="g-root-tx_aiaugmen_mb3bn3x8umn-stroke" data-item-order="0" transform="translate(859.51171875, 296)"></g><g id="g-root-tx_optimizi_142dc4vx8s9a-fill" data-item-order="0" transform="translate(28.55859375, 368)"><g id="tx_optimizi_142dc4vx8s9a-fill-merged" stroke="none" fill="#484848" fill-opacity="1"><g><text style="font: 15px &quot;Shantell Sans&quot;, cursive; white-space: pre;" transform="translate(66.07421875, 28)" font-size="15px" font-family="'Shantell Sans', cursive"><tspan x="-54.07" y="1" dominant-baseline="ideographic">Optimizing for </tspan><tspan x="-46.09" y="19" dominant-baseline="ideographic">code output</tspan></text></g></g></g><g id="g-root-tx_optimizi_142dc4vx8s9a-stroke" data-item-order="0" transform="translate(28.55859375, 368)"></g><g id="g-root-tx_deeplyun_18i6u9bx8s8w-fill" data-item-order="0" transform="translate(188.66796875, 368)"><g id="tx_deeplyun_18i6u9bx8s8w-fill-merged" stroke="none" fill="#484848" fill-opacity="1"><g><text style="font: 15px &quot;Shantell Sans&quot;, cursive; white-space: pre;" transform="translate(81.484375, 28)" font-size="15px" font-family="'Shantell Sans', cursive"><tspan x="-69.48" y="1" dominant-baseline="ideographic">Deeply understand </tspan><tspan x="-45.08" y="19" dominant-baseline="ideographic">the problem</tspan></text></g></g></g><g id="g-root-tx_deeplyun_18i6u9bx8s8w-stroke" data-item-order="0" transform="translate(188.66796875, 368)"></g><g id="g-root-tx_useaifor_zmju0fx8t1m-fill" data-item-order="0" transform="translate(358.58203125, 359)"><g id="tx_useaifor_zmju0fx8t1m-fill-merged" stroke="none" fill="#484848" fill-opacity="1"><g><text style="font: 15px &quot;Shantell Sans&quot;, cursive; white-space: pre;" transform="translate(72.05078125, 37)" font-size="15px" font-family="'Shantell Sans', cursive"><tspan x="-40.24" y="-8" dominant-baseline="ideographic">Use AI for </tspan><tspan x="-60.05" y="10" dominant-baseline="ideographic">exploration and </tspan><tspan x="-41.94" y="28" dominant-baseline="ideographic">refinement</tspan></text></g></g></g><g id="g-root-tx_useaifor_zmju0fx8t1m-stroke" data-item-order="0" transform="translate(358.58203125, 359)"></g><g id="g-root-tx_focusona_v6qbvzx8ttw-fill" data-item-order="0" transform="translate(531.93359375, 368)"><g id="tx_focusona_v6qbvzx8ttw-fill-merged" stroke="none" fill="#484848" fill-opacity="1"><g><text style="font: 15px &quot;Shantell Sans&quot;, cursive; white-space: pre;" transform="translate(66.69921875, 28)" font-size="15px" font-family="'Shantell Sans', cursive"><tspan x="-46.38" y="1" dominant-baseline="ideographic">Focus on AI-</tspan><tspan x="-54.7" y="19" dominant-baseline="ideographic">resistant areas</tspan></text></g></g></g><g id="g-root-tx_focusona_v6qbvzx8ttw-stroke" data-item-order="0" transform="translate(531.93359375, 368)"></g><g id="g-root-tx_explainc_v6qbvzx8tty-fill" data-item-order="0" transform="translate(705.1953125, 368)"><g id="tx_explainc_v6qbvzx8tty-fill-merged" stroke="none" fill="#484848" fill-opacity="1"><g><text style="font: 15px &quot;Shantell Sans&quot;, cursive; white-space: pre;" transform="translate(72.5703125, 28)" font-size="15px" font-family="'Shantell Sans', cursive"><tspan x="-60.57" y="1" dominant-baseline="ideographic">Explain complex </tspan><tspan x="-58.15" y="19" dominant-baseline="ideographic">systems clearly</tspan></text></g></g></g><g id="g-root-tx_explainc_v6qbvzx8tty-stroke" data-item-order="0" transform="translate(705.1953125, 368)"></g><g id="g-root-tx_thriving_qqwtrjx8um8-fill" data-item-order="0" transform="translate(855.1484375, 380)"><g id="tx_thriving_qqwtrjx8um8-fill-merged" stroke="none" fill="#484848" fill-opacity="1"><g><text style="font: 15px &quot;Shantell Sans&quot;, cursive; white-space: pre;" transform="translate(79.484375, 28)" font-size="15px" font-family="'Shantell Sans', cursive"><tspan x="-67.48" y="1" dominant-baseline="ideographic">Thriving in the AI </tspan><tspan x="-14.33" y="19" dominant-baseline="ideographic">era</tspan></text></g></g></g><g id="g-root-tx_thriving_qqwtrjx8um8-stroke" data-item-order="0" transform="translate(855.1484375, 380)"></g></g></g><path id="w4lo7gv21h1xj" d="M65.283 12.757a.35.35 0 0 0 .584.157l5.203-5.141-6.183 3.523.396 1.461zm-2.216-11.7a.35.35 0 0 0-.522.305v3.111l3.276-1.868-2.754-1.548zm3.728 2.105l-4.25 2.421v2.445l6.391-3.644-2.141-1.222zm4.708 3.303a.35.35 0 0 0 0-.609l-1.592-.9-7.365 4.199v1.782a.35.35 0 0 0 .523.305l8.435-4.777z M44.542 2.513c0-.433.355-.783.792-.783s.792.35.792.783-.355.783-.792.783-.792-.35-.792-.783zm59.171 0c0-.433.355-.783.792-.783s.792.35.792.783-.355.783-.792.783-.792-.35-.792-.783zm-85.951 7.636h-1.27v-.487c-.276.201-.864.609-1.881.609-1.202 0-2.274-.794-2.137-2.078.118-1.106 1.153-1.584 1.848-1.727l2.17-.345c0-.539-.29-.956-1.064-1.006s-1.21.305-1.571 1.017l-1.124-.605c1.218-2.631 5.029-1.764 5.029.414v4.207zm-1.27-2.86c.006.396-.062 1.112-.819 1.59-.587.37-1.841.299-1.903-.395-.049-.555.461-.791.906-.898l1.816-.297zm72.662 2.86h-1.27v-.487c-.276.201-.864.609-1.881.609-1.202 0-2.274-.794-2.137-2.078.118-1.106 1.153-1.584 1.848-1.727l2.17-.345c0-.539-.29-.956-1.064-1.006s-1.21.305-1.571 1.017l-1.124-.605c1.218-2.631 5.029-1.764 5.029.414v4.207zm-1.27-2.86c.006.396-.062 1.112-.82 1.59-.587.37-1.841.299-1.903-.395-.049-.555.461-.791.906-.898l1.816-.297zM99.096 10.149H97.85v-8.45h1.246v4.895l2.68-2.559h1.738l-2.633 2.535 2.715 3.578h-1.556l-2.077-2.707-.867.844v1.863zm6.053-6.114h-1.255v6.113h1.255V4.035zm-59.2 0h-1.255v6.113h1.255V4.035zm5.584 6.113V1.697h1.255v2.695c.361-.346 1-.485 1.47-.485 1.452 0 2.477 1.082 2.457 2.448v3.792h-1.27v-3.68c0-.408-.214-1.339-1.315-1.339-.968 0-1.342.756-1.342 1.339v3.681h-1.255zm-4.76-4.894V4.039h.621a.45.45 0 0 0 .45-.45v-.855h1.251v1.305h1.309v1.215h-1.309v3.109c0 .293.105.664.648.664.365 0 .531-.035.736-.07v1.137s-.361.113-.857.113c-1.398 0-1.777-1.051-1.777-1.788V5.254h-1.071zM36.528 4.039h-1.394l2.191 6.106h1.125l1.234-3.918 1.238 3.918h1.129l2.188-6.106h-1.383l-1.359 3.93-1.256-3.93h-1.124l-1.242 3.957-1.348-3.957zM26.212 7.141c-.02 1.566 1.187 3.129 3.223 3.129 1.566 0 2.383-.918 2.734-1.719L31.172 8c-.315.399-.801 1.094-1.738 1.094-1.145 0-1.825-.781-1.891-1.52h4.625c.074-.284.148-.995-.03-1.559-.336-1.064-1.221-2.102-2.839-2.102s-3.088 1.152-3.088 3.227zm1.363-.75h3.348c-.055-.43-.566-1.301-1.623-1.301a1.79 1.79 0 0 0-1.725 1.301zm-8.758.75c.038 1.758 1.277 3.133 3.145 3.133 1.074 0 1.723-.477 1.961-.672v.547h1.242V1.703h-1.258v2.888c-.414-.36-1.062-.68-1.93-.68-1.91 0-3.198 1.473-3.16 3.23zm1.309-.08c0 1.119.723 1.978 1.836 1.978a1.88 1.88 0 0 0 1.94-1.904c0-1.371-1.011-1.99-1.972-1.99s-1.805.798-1.805 1.916zm76.683-.028C96.771 5.275 95.532 3.9 93.664 3.9c-1.074 0-1.723.477-1.961.672v-.547h-1.242v8.22h1.258V9.583c.414.36 1.063.68 1.93.68 1.91 0 3.198-1.473 3.16-3.23zm-1.309.08c0-1.119-.723-1.978-1.836-1.978a1.88 1.88 0 0 0-1.94 1.904c0 1.371 1.011 1.99 1.972 1.99S95.5 8.231 95.5 7.113zM106.441 10.173V4.036h1.254v.382c.361-.346 1-.485 1.47-.485 1.452 0 2.477 1.082 2.457 2.448v3.792h-1.27V6.492c0-.408-.214-1.339-1.315-1.339-.969 0-1.342.756-1.342 1.339v3.681h-1.254zm-30.383-.021V1.824h1.084l4.215 5.777V1.824h1.32v8.328h-1.094l-4.207-5.796v5.796h-1.319zM5.24 10.149H4V2.377h1.014l2.664 3.597 2.654-3.592h1.03v7.766h-1.256V4.762L7.678 8.068 5.24 4.742v5.407z" transform="translate(11, 449.0001220703125)" fill="#80808088" stroke="none"></path></svg>